<?xml version="1.0" encoding="utf-8"?>
<!-- Generator: Adobe Illustrator 16.0.0, SVG Export Plug-In . SVG Version: 6.00 Build 0)  -->
<!DOCTYPE svg PUBLIC "-//W3C//DTD SVG 1.1//EN" "http://www.w3.org/Graphics/SVG/1.1/DTD/svg11.dtd">
<svg version="1.1" id="圖層_1" xmlns="http://www.w3.org/2000/svg" xmlns:xlink="http://www.w3.org/1999/xlink" x="0px" y="0px"
	 width="544px" height="249px" viewBox="0 0 544 249" enable-background="new 0 0 544 249" xml:space="preserve">
<g>
	<path d="M337.562,115.039c0.805-0.065,1.688-0.126,2.646-0.182c0.959-0.056,1.994-0.107,3.107-0.154
		c1.111-0.047,2.299-0.088,3.563-0.127c1.973-0.057,4.113-0.105,6.461-0.141l10.951-0.165l-7.189,46.008
		c4.148,2.786,10.496,4.273,14.891,5.016l3.473-22.237l21.184-0.318c1.633-0.025,2.564-0.763,2.793-2.217
		c0.113-0.727-1.131-2.293-3.725-4.703c-4.26-4.014-6.92-6.013-7.979-5.997c-0.959,0.015-3.262,1.863-6.902,5.541
		c-2.689,2.489-4.084,3.732-4.178,3.733l-0.576,0.009l3.918-25.071l22.336-0.337c1.635-0.025,2.559-0.718,2.771-2.082
		c0.139-0.906-1.371-3.194-4.537-6.865c-3.148-3.758-5.639-5.624-7.465-5.596c-0.574,0.01-2.803,1.993-6.678,5.946
		c-3.188,3.222-4.939,4.924-5.256,5.11l-2.449,0.037l3.045-19.486l20.318-0.306c1.441-0.021,2.277-0.758,2.504-2.211
		c0.127-0.818-1.197-2.792-3.963-5.923c-2.758-3.222-4.904-4.821-6.441-4.797c-0.482,0.007-2.369,1.667-5.666,4.978
		c-2.539,2.757-3.961,4.187-4.262,4.28l-1.873,0.028l2.109-13.488c0.268-1.726,1.461-2.924,3.578-3.59
		c2.846-1.038,4.375-2.242,4.588-3.604c0.154-0.999-2.344-1.867-7.5-2.605c-6.555-0.989-11.873-1.633-15.945-1.934
		c0.217,5.977-0.279,12.829-1.484,20.548l-0.768,4.905l-5.33,0.081c-8.746,0.131-15.365-0.13-19.863-0.79l1.311,5.42
		c3.596-0.326,9.576-0.553,17.936-0.678l5.332-0.081l-3.047,19.486l-9.365,0.141c-3.785,0.057-7.158,0.037-10.168-0.055
		c-0.984-0.029-1.93-0.066-2.832-0.111c-0.904-0.045-1.768-0.098-2.588-0.159c-1.232-0.09-2.369-0.2-3.412-0.329
		c-0.346-0.042-0.684-0.086-1.01-0.133l1.455,5.417C336.03,115.175,336.759,115.104,337.562,115.039"/>
	<path d="M214.834,92.436c9.122-0.781,14.099-7.024,14.099-7.024s-7.704,5.772-15.315,5.325c-7.612-0.448-17.661-1.374-19.516,1.455
		c-1.852,2.83,2.343,3.659,1.854,5.073c-0.487,1.415-4.635,2.641-11.658,1.271c-7.025-1.368-20.393,0.146-24.929,5.657
		c0,0,7.308-3.604,20.63-1.559s27.366,2.928,28.027-1.391s-5.094-4.173-4.362-6.125C204.161,93.791,205.713,93.216,214.834,92.436"
		/>
	<path d="M513.511,149.553c-26.262-8.42-42.313-3.229-47.047-0.561c-4.732,2.67,7.455,6.08,8.018,11.286
		c0.563,5.207-8.277,9.572-46.096,10.422c-28.799,0.646-45.861-1.115-54.613-2.009c-13.012-1.263-18.938-6.808-20.998-9.325
		c-0.039-0.069-0.082-0.145-0.125-0.227c-0.258-0.328-0.518-0.672-0.771-1.027v-0.001c-1.791-2.499-3.512-5.69-5.162-9.592
		c1.254-3.733,2.543-7.968,3.855-12.699c0.086-0.546,1.227-1.106,3.428-1.685c2.307-0.666,3.553-1.594,3.738-2.777
		c0.184-1.179-1.465-2.286-4.943-3.322c-4.375-0.839-9.35-1.807-14.93-2.901c-0.461,2.797-0.924,5.487-1.383,8.074
		c-3.742-2.347-7.818-4.908-12.242-7.692c-3.422,5.842-7.494,11.36-12.223,16.558c-1.199,1.407-2.438,2.742-3.693,4.043
		c-0.301,0.313-0.609,0.614-0.914,0.921l0.76,1.933l1.787,2.595c0.244-0.104,0.494-0.207,0.732-0.311
		c8.361-3.597,15.16-7.134,20.371-10.606l3.936,0.563c-0.844,4.358-1.689,8.371-2.527,12.007c-1.42,6.184-2.82,11.427-4.205,15.75
		c-3.113-1.472-6.195-3.201-9.244-5.219c-2.928-2.053-5.75-4.622-8.463-7.704l-0.002,0.001l-0.016-0.02
		c-0.184-0.21-0.367-0.428-0.551-0.643h-0.006c0,0-0.01-0.017-0.012-0.021c-0.773-0.904-1.541-1.842-2.297-2.833l-1.324-2.033
		l-2.557-6.779c-2.102-3.964-5.219-8.029-9.398-12.2c4.541-2.529,8.896-5.415,13.084-8.624c0.936-0.716,1.869-1.436,2.785-2.185
		l-6.672,0.287c0,0-15.773,3.793-26.582,9.542c-0.006,0.003-0.008,0.004-0.012,0.008c-0.855,0.623-1.723,1.239-2.615,1.844
		c-4.112,3.193-8.513,5.964-13.193,8.316c-0.208-1.896-1.28-4.017-3.221-6.361c-1.93-2.437-5.966-5.177-12.118-8.218l-1.385,1.162
		c0.998,2.528,1.784,5.153,2.358,7.873l-20.985,1.911c0.006-0.004,0.011-0.009,0.018-0.014c-2.188,0.136-4.721,0.344-6.864,0.638
		l-2.084,0.189c-0.983-1.356-2.329-3.029-4.094-5.06c-4.13-4.877-7.36-7.297-9.7-7.262c-0.67,0.01-3.577,2.632-8.729,7.854
		c-4.127,4.371-6.432,6.665-6.909,6.882l-94.739,1.427c-10.252,0.155-17.982-0.147-23.196-0.91l1.71,6.118
		c4.075-0.479,11.015-0.795,20.819-0.942l20.374-0.307l0.562-0.01l0.617-0.008l26.624-0.401l64.891-0.977
		c0.378,1.312,0.692,2.394,0.935,3.223c1.676,6.619,3.519,9.913,5.531,9.883c0.804-0.011,1.514-0.688,2.125-2.026
		c0.233-0.857,0.496-1.571,0.788-2.146c0.102-0.663,0.814-1.057,2.14-1.172c2.616-0.701,5.355-1.504,8.203-2.401l-1.844,11.8
		l-2.526,16.167l-0.268,1.716c-1.517,9.703-2.926,17.127-4.232,22.272c-0.43,2.758,0.762,4.118,3.58,4.075
		c1.105-0.018,2.839-0.186,5.199-0.505c5.146-0.839,7.856-2.113,8.125-3.825c0.459-5.513,1.418-12.93,2.875-22.252l5.729-36.675
		c1.844-0.883,3.804-1.858,5.881-2.935c0.109,1.233,0.144,2.609,0.109,4.128c-0.081,4.366,0.287,6.826,1.104,7.385
		c0.58,0.753,1.781,1.113,3.593,1.086c2.012-0.03,4.05-0.867,6.115-2.513c1.329-1.444,2.2-3.166,2.613-5.165
		c8.359-2.12,16.748-5.044,25.16-8.778c0.318-0.1,0.699-0.295,1.146-0.587c-6.102,6.924-11.553,12.275-16.36,16.048
		c-4.449,4.053-9.679,7.978-15.692,11.769c-2.343-2.338-6.371-4.506-12.08-6.507l-1.694,2.159
		c2.027,5.665,3.118,11.534,3.273,17.604c0.249,4.173,0.979,6.248,2.188,6.23c2.514-0.037,4.696-0.829,6.546-2.374
		c2.582-2.412,4.077-4.904,4.479-7.471c0.371-2.378,0.15-4.51-0.657-6.397c8.521-2.5,15.654-5.124,21.406-7.869
		c5.547-2.736,11.074-6.002,16.584-9.786c0.025,0.476,0.051,0.948,0.08,1.421c-9.566,9.826-18.113,17.312-25.642,22.454
		c-6.654,5.32-14.526,10.422-23.62,15.303l0.693,3.264c13.171-3.996,23.877-7.95,32.121-11.871
		c5.33-2.643,10.623-5.714,15.893-9.209c-0.246,2.851-0.584,5.657-1.014,8.414c-0.818,5.231-2.152,8.621-3.998,10.169
		c-1.881,1.736-5.586,2.645-11.117,2.729c-2.111,0.034-6.092-0.525-11.935-1.67l-0.922,3.004c8.493,2.813,13.22,6.301,14.177,10.465
		c0.611,3.783,1.469,5.671,2.578,5.654c1.908-0.029,4.766-0.975,8.572-2.834c4.252-2.151,8.063-5.342,11.432-9.567
		c2.924-3.937,5.027-9.996,6.305-18.177c0.18-1.142,0.318-2.375,0.43-3.708c2.049,3.578,4.383,6.626,7,9.149
		c1.824,1.989,3.352,3.488,4.605,4.535l1.242,0.95c0.797,0.535,1.436,0.811,1.904,0.804c1.406-0.021,2.91-1.608,4.51-4.766
		c2.379-4.307,5.785-7.156,10.219-8.554l0.967-3.289c-1.213-0.308-2.416-0.669-3.617-1.056c0.979-1.498,1.918-3.006,2.785-4.531
		c1.84-3.199,3.75-7.442,5.727-12.73c1.252,4.243,2.65,7.573,4.188,9.998c2.953,5.03,6.975,9.05,12.066,12.054
		c0.186,0.117,0.383,0.235,0.582,0.351c0.008,0.004,0.014,0.011,0.021,0.015c7.676,5.369,24.68,6.187,24.68,6.187
		c11.578,0.759,26.186,1.1,43.789,1.028c0.002,0.001,0.004,0.001,0.004,0.001c0.039,0.03,0.227,0.024,0.498-0.003
		c1.818-0.009,3.666-0.021,5.547-0.037c49.928,3.708,63.18-9.447,58.344-16.891c-5.074-7.81-9.367-8.189-4.309-14.704
		C495.05,146.288,513.511,149.553,513.511,149.553"/>
	<path d="M111.529,167.609c7.32-5.644,14.889-12.061,22.707-19.252h-22.501c-5.104,7.212-10.196,13.759-15.27,19.636
		c-7.369,0.216-14.676,0.379-21.915,0.488c1.381,6.81,2.547,11.786,3.505,14.922c0.969,5.869,2.795,8.783,5.468,8.743
		c1.111-0.017,2.082-1.24,2.905-3.667c0.682-2.219,1.355-3.333,2.022-3.344c30.084-3.035,57.084-7.618,81.004-13.747l-2.587-6.347
		C148.135,166.177,129.681,167.04,111.529,167.609"/>
	<path d="M184.789,110.554c-0.668,0.01-3.254,2.308-7.746,6.893c-3.696,3.735-5.782,5.71-6.258,5.926l-58.816,0.886
		c-10.138,0.152-17.813-0.151-23.03-0.915l1.495,6.439c4.186-0.48,11.127-0.798,20.818-0.943l84.216-1.269
		c1.778-0.026,2.812-0.934,3.09-2.725c0.149-0.947-1.612-3.547-5.282-7.803C189.732,112.685,186.904,110.521,184.789,110.554"/>
	<path d="M400.944,155.725c0.701,2.89,2.381,4.678,5.057,5.361c3.207,0.95,11.1,1.328,23.689,1.14
		c7.877-0.12,14.248-0.713,19.113-1.785c2.568-0.489,4.357-1.196,5.363-2.12c2.902-1.402,4.623-3.828,5.164-7.28
		c0.172-1.093-0.566-2.213-2.207-3.368c-1.969-1.511-2.912-3.761-2.822-6.753c-0.291,0.004,0.182-5.169,1.414-15.519l-3.229-0.496
		c-3.564,9.934-6.014,16.087-7.344,18.464c-1.443,3.103-3.365,4.673-5.766,4.708l-7.559,0.521
		c-7.975,0.121-12.707-0.26-14.199-1.146c-0.973-0.529-1.059-3.335-0.262-8.424l3.09-19.775c0.002-0.011,0.006-0.047,0.016-0.113
		l0.018-0.107c0.006-0.036,0.012-0.07,0.018-0.114l0.689-4.417l0,0c0.189-1.204,0.389-2.49,0.574-3.678l0.076-0.491
		c0.035-0.2,0.066-0.396,0.094-0.589l0.234-1.504c0.025-0.159,0.049-0.31,0.072-0.453l0.166-1.076
		c0.008-0.032,0.012-0.063,0.018-0.093l0.041-0.276c0.002-0.003,0.004-0.014,0.004-0.015l4.492-28.752l19.742-0.297l-5.197,33.249
		l-16.998,0.255l-0.58,3.68l17.006-0.256l-0.363,2.316c-0.439,2.816,0.639,4.205,3.232,4.165c1.057-0.016,2.664-0.176,4.818-0.481
		c5.029-0.891,7.678-2.2,7.945-3.925c0.768-7.352,1.482-13.163,2.15-17.434l2.641-16.896c0.24-1.543,1.215-2.872,2.924-3.986
		c2.119-1.3,3.277-2.587,3.475-3.859c0.188-1.179-1.92-3.321-6.326-6.429c-3.846-2.39-6.391-3.575-7.637-3.556
		c-1.154,0.019-2.531,0.853-4.131,2.509c-2.207,1.848-4.523,4.103-6.953,6.765L429.015,73.6c-4.654-2.105-9.99-3.837-16.008-5.196
		c-0.605,5.717-1.342,11.349-2.207,16.889l-9.559,61.182C400.601,150.563,400.503,153.646,400.944,155.725"/>
	<path d="M222.454,133.219c2.451,0.185,5.453,0.465,7.497,0.834c2.393-1.792,4.732-3.614,7.032-5.465l0.014-0.002l0.017-0.021
		c2.813-2.264,5.561-4.565,8.235-6.915c1.183-1.038,2.346-2.088,3.498-3.144c9.5,3.744,29.469,10.405,39.344,4.762
		c13.229-7.562,51.143-3.66,51.143-3.66s-24.502-8.247-52.398-2.933c-17.706,3.373-30.369,2.311-37.28,1.084
		c0.503-0.462,1.012-0.925,1.509-1.393c3.415-3.203,6.721-6.471,9.892-9.825c0.379-0.48,1.742-0.882,4.103-1.202
		c2.257-0.32,3.462-0.953,3.61-1.905c0.268-1.712-1.638-3.344-5.708-4.896c-4.293-1.453-8.724-2.952-13.302-4.499
		C242.506,107.822,233.429,120.881,222.454,133.219"/>
	<path d="M218.804,162.856c-3.067-1.391-6.391-2.681-10.013-3.851c-3.57,15.145-8.336,28.929-14.293,41.359l2.171,1.532
		c8.843-9.056,16.196-18.845,22.058-29.375C220.563,166.216,218.904,163.041,218.804,162.856"/>
	<path d="M224.22,122.896c2.015-0.029,3.77-0.673,5.271-1.93c2.124-2.026,3.343-4.037,3.653-6.035
		c0.579-3.709-0.425-6.919-3.013-9.635c-0.085-0.092-0.188-0.185-0.282-0.279c-2.002-2.538-10.074-5.155-10.074-5.155l0.003,0.003
		c-2.221-0.797-4.685-1.556-7.411-2.274l-1.454,1.587c4.441,5.629,7.25,11.422,8.425,17.385
		C220.276,120.82,221.905,122.932,224.22,122.896"/>
	<path d="M228.883,102.403c7.364-5.28,14.008-11.046,19.916-17.318c0.376-0.481,1.693-0.881,3.952-1.198
		c2.345-0.224,3.591-0.813,3.738-1.766c0.298-1.9-1.649-3.58-5.839-5.038c-4.173-1.548-8.562-3.002-13.172-4.355
		c-3.646,9.68-8.073,18.928-13.27,27.746L228.883,102.403z"/>
	<path d="M119.063,58.583l25.43-0.383l1.038-0.015l0.935-0.015l19.769-0.296l49.572-0.748c1.896-0.028,2.974-0.884,3.237-2.57
		c0.129-0.842-1.63-3.443-5.281-7.8c-3.67-4.253-6.564-6.364-8.682-6.332c-0.668,0.011-3.297,2.255-7.884,6.737
		c-3.603,3.838-5.586,5.866-5.952,6.08l-71.517,1.077c-10.251,0.155-18.039-0.146-23.361-0.909l1.853,6.277
		C102.312,59.1,109.255,58.73,119.063,58.583"/>
	<path d="M193.688,166.687c-1.781-3.542-5.005-6.751-9.666-9.625c-4.777-2.868-11.428-5.449-19.959-7.738l-2.457,3.976
		c2.74,2.7,5.123,5.694,7.219,8.931c1.001,1.783,6.037,10.814,7.289,14.208c0.003,0.008,0.006,0.014,0.008,0.02
		c2.628,7.489,4.613,11.232,5.951,11.212c3.118-0.047,5.952-1.456,8.496-4.225c2.684-2.248,4.265-4.899,4.743-7.954
		C195.821,172.224,195.281,169.289,193.688,166.687"/>
	<path d="M81.458,97.607c1.672-0.024,3.24-0.468,4.709-1.332c1.209-0.755,2.303-1.851,3.29-3.277l3.104-5.646
		c0.895-2.185,1.76-5.433,2.6-9.705l1.687-9.193l0.409-2.609l-3.411-0.58c-2.061,4.66-4.34,8.211-6.832,10.665
		c-2.479,2.349-5.778,4.607-9.896,6.77c-3.746,1.947-5.737,3.66-5.968,5.131c-0.478,3.056,0.154,5.414,1.896,7.067
		C75.198,96.756,78.004,97.659,81.458,97.607"/>
	<path d="M266.714,85.899c0.025,0.557,0.148,1.107,0.37,1.643c0.264,0.731,0.629,1.274,1.064,1.659
		c0.389,0.438,0.859,0.859,1.417,1.258l-0.022-0.002c0,0,0.074,0.051,0.181,0.12c0.965,0.663,2.18,1.258,3.656,1.763
		c0.133,0.047,0.262,0.097,0.402,0.141c2.465,0.783,3.363,2.402,2.549,3.323c-2.426,2.374-3.953,6.153,7.006,8.435
		c1.508,0.316,3.068,0.601,4.652,0.862c-9.867,6.008-19.296,9.791-19.296,9.791s12.743-3.284,25.474-8.911
		c16.654,2.011,34.262,1.459,35.949-0.668c2.064-2.603-0.684-6.688-17.201-8.257c-0.867-0.083,7.654,4.919,0.086,5.602
		c-2.563,0.229-6.676,0.031-11.057-0.458c8.609-4.633,15.896-10.338,17.359-16.789c3.963-17.462-20.467-9.852-35.32-1.359
		c0,0,32.588-8.046,22.07,6.012c-2.98,3.984-7.275,7.703-11.895,10.988c-4.5-0.832-8.447-1.9-10.316-3.039
		c0.049-1.742,3.074-2.912,0.635-5.156c-1.467-1.349-2.205-1.467-3.107-1.748c-0.191-0.137-0.389-0.249-0.6-0.302
		c-0.088-0.021-0.174-0.057-0.258-0.086c-1.828-1.031-2.824-2.292-3.195-2.833c-0.055-0.091-0.117-0.178-0.17-0.27
		c-1.092-2.098-1.041-4.722,1.949-6.078c4.309-1.952,19.885-7.957,24.096-17.637l0.008-0.018c0.391-0.591,0.746-1.199,1.07-1.824
		c1.42-2.522,3.906-7.299,5.248-12.006c0,0-10.732,15.015-20.488,18.917c-4.805,1.922-10.143,3.749-14.293,5.853
		c0,0-2.105,0.852-4.169,2.58c-0.056,0.044-0.11,0.088-0.165,0.132l-0.005,0.004c-0.788,0.649-1.435,1.332-1.91,2.053
		c-1.228,1.652-2.073,3.732-1.78,6.278C266.709,85.881,266.712,85.889,266.714,85.899"/>
	<path d="M104.687,116.337c23.854,2.634,26.342-7.023,24.438-8.926c-1.902-1.902-0.398-3.699,5.175-5.558
		c5.572-1.856,3.313-8.881-1.619-8.437c-4.932,0.444-12.629-0.833-11.312-4.106c0.854-2.119,8.49-2.565,18.779-2.578v0.021
		l-0.102,0.645c-1.794,11.483-3.68,20.338-5.651,26.564c-0.51,3.268,1.017,4.872,4.582,4.819c1.225-0.019,3.197-0.207,5.92-0.564
		c6.052-1.035,9.236-2.552,9.551-4.556l4.182-26.767c15.141,0.116,34.706-2.948,41.289-4.062c-0.232,0.318-0.469,0.637-0.672,0.943
		c-0.072,0.107-0.139,0.21-0.204,0.313l0.064-0.013c-0.563,0.762-0.954,1.289-1.004,1.336c-0.145,0.141-0.488,0.755,0.106,1.038
		c0.238,0.113,0.619,0.175,1.228,0.131c0.005,0,0.01-0.002,0.015-0.002c1.104,0.042,2.485-0.102,4.357-0.707
		c0.031-0.009,0.06-0.018,0.09-0.028c6.278-1.998,11.811-3.987,16.574-5.962c0.51-0.428,2.266-0.665,5.278-0.711
		c2.737-0.459,4.217-1.376,4.429-2.747c0.247-1.578-1.825-4.33-6.212-8.26c-4.75-4.443-7.851-6.658-9.296-6.636
		c-1.119,0.016-2.889,1.04-5.314,3.073c-1.614,1.077-3.603,2.42-5.965,4.03l-42.108,0.634l1.269-8.128h-18.501l-1.314,8.407
		l-43.745,0.659c-0.135,1.444-0.228,3.097-0.169,4.574l43.197-0.65l-0.767,4.907c0.043-0.267-0.189,1.149-0.424,2.579
		c-1.864-0.219-3.634-0.464-5.264-0.746c-4.916-0.851-9.135-1.232-12.742-1.282c0-0.002,0.007-0.011,0.007-0.011
		s-16.535-0.481-19.244,4.934c-1.113,2.227-1.321,4.066-1.022,5.557l-0.007-0.002c0,0,0.011,0.058,0.031,0.141
		c0.021,0.085,0.055,0.208,0.103,0.362c0.212,0.73,0.543,1.372,0.955,1.918c1.035,1.512,3.008,3.271,6.744,3.815
		c0.028,0.004,0.057,0.007,0.085,0.012c1.909,0.412,4.047,0.586,6.144,0.637c-0.013,0.001-0.043,0.005-0.043,0.005
		s3.824,0.013,2.463,1.223c-0.005,0.003-1.407,0.674-4.257,0.82c-2.854,0.145-6.95,2.634-3,4.902c0.277,0.158,0.56,0.279,0.84,0.379
		c1.266,0.641,3.263,1.998,0.698,3.279c-3.513,1.756-9.805,1.462-9.805,1.462c-16.538-1.023-39.513-3.511-73.027,7.77
		c0,0,30.883-4.483,39.076-4.255C77.756,112.762,80.831,113.704,104.687,116.337 M159.758,79.04l0.812-5.193l44.113-0.665
		c-0.006,0.011-0.011,0.02-0.017,0.031l1.967-0.031c-0.693,1.2-1.454,2.426-2.269,3.671c-0.176,0.243-1.518,2.094-2.925,4.03
		c-0.121,0.146-0.244,0.294-0.374,0.458c-0.299,0.367-0.617,0.771-0.927,1.184c-5.972,0.245-23.958,0.867-40.932,0.323
		C159.457,81.114,159.701,79.403,159.758,79.04"/>
	<polygon points="338.429,199.728 340.614,196.029 339.849,190.91 342.282,190.932 342.649,194.426 347.089,190.976 
		349.478,190.995 342.679,196.061 340.499,199.747 	"/>
	<path d="M349.407,199.825l0.564-0.953c-0.479,0.344-0.996,0.608-1.557,0.802c-0.559,0.19-1.082,0.284-1.564,0.279
		c-0.492-0.005-0.877-0.099-1.158-0.28c-0.281-0.185-0.422-0.441-0.414-0.776c0.006-0.335,0.195-0.816,0.566-1.448l2.385-4.032
		l1.977,0.02l-1.729,2.926c-0.494,0.833-0.777,1.364-0.85,1.591c-0.074,0.226-0.043,0.401,0.086,0.527
		c0.133,0.126,0.344,0.189,0.633,0.191c0.33,0.004,0.684-0.074,1.059-0.234c0.375-0.158,0.68-0.366,0.918-0.618
		c0.238-0.253,0.613-0.811,1.123-1.675l1.586-2.685l1.977,0.019l-3.758,6.364L349.407,199.825z"/>
	<polygon points="361.382,199.859 366.575,191.074 368.552,191.092 363.362,199.877 	"/>
	<path d="M365.382,199.894l3.762-6.363l1.979,0.017l-3.76,6.365L365.382,199.894z M369.651,192.668l0.922-1.559l1.98,0.018
		l-0.92,1.558L369.651,192.668z"/>
	<path d="M376.165,199.989l-1.979-0.019l1.922-3.25c0.385-0.651,0.605-1.088,0.658-1.303c0.055-0.217,0.014-0.385-0.121-0.502
		s-0.328-0.179-0.586-0.18c-0.33-0.003-0.676,0.07-1.031,0.215c-0.357,0.149-0.67,0.354-0.934,0.617s-0.611,0.761-1.045,1.493
		l-1.705,2.886l-1.98-0.019l3.76-6.363l1.834,0.017l-0.547,0.929c0.537-0.357,1.064-0.623,1.578-0.801
		c0.516-0.175,1.021-0.262,1.516-0.256c0.576,0.005,1.002,0.115,1.273,0.327c0.273,0.213,0.391,0.485,0.346,0.817
		c-0.043,0.33-0.25,0.809-0.619,1.432L376.165,199.989z"/>
	<path d="M390.95,200.118l-2.252-0.018l0.273-1.998l-4.123-0.036l-2.027,1.981l-2.211-0.02l9.201-8.75l2.203,0.021L390.95,200.118z
		 M389.179,196.61l0.506-3.273l-3.322,3.248L389.179,196.61z"/>
	<path d="M398.812,200.188l-1.977-0.018l1.92-3.251c0.389-0.651,0.605-1.085,0.66-1.303c0.053-0.216,0.012-0.385-0.121-0.502
		c-0.135-0.116-0.33-0.178-0.586-0.18c-0.332-0.003-0.678,0.071-1.033,0.218s-0.67,0.352-0.934,0.616
		c-0.264,0.263-0.611,0.76-1.043,1.492l-1.707,2.885l-1.98-0.018l3.762-6.364l1.834,0.018l-0.549,0.929
		c0.537-0.356,1.064-0.623,1.578-0.801c0.516-0.175,1.021-0.261,1.52-0.258c0.574,0.007,1,0.115,1.27,0.329
		c0.275,0.212,0.391,0.486,0.346,0.816c-0.043,0.332-0.25,0.809-0.619,1.432L398.812,200.188z"/>
	<path d="M400.817,200.206l3.76-6.363l1.979,0.017l-3.76,6.363L400.817,200.206z M405.087,192.979l0.92-1.558l1.98,0.017
		l-0.92,1.559L405.087,192.979z"/>
	<path d="M408.425,193.876l1.814,0.016l-0.512,0.869c0.523-0.336,1.031-0.588,1.521-0.756c0.488-0.165,0.957-0.246,1.412-0.242
		c0.477,0.003,0.844,0.091,1.094,0.262c0.254,0.172,0.389,0.428,0.412,0.77c0.531-0.337,1.035-0.587,1.516-0.751
		c0.48-0.166,0.934-0.246,1.361-0.242c0.508,0.005,0.896,0.095,1.164,0.267c0.268,0.174,0.402,0.418,0.408,0.736
		c0.004,0.318-0.186,0.804-0.572,1.46l-2.41,4.071l-1.977-0.017l2.152-3.641c0.375-0.638,0.545-1.061,0.51-1.271
		c-0.037-0.21-0.242-0.319-0.619-0.322c-0.441-0.003-0.881,0.14-1.324,0.432c-0.441,0.293-0.916,0.866-1.42,1.723l-1.809,3.058
		l-1.979-0.017l2.063-3.491c0.408-0.691,0.617-1.139,0.627-1.339c0.014-0.266-0.195-0.401-0.631-0.405
		c-0.289-0.002-0.6,0.064-0.926,0.198c-0.326,0.133-0.619,0.332-0.885,0.593c-0.262,0.262-0.576,0.703-0.945,1.325l-1.828,3.096
		l-1.98-0.017L408.425,193.876z"/>
	<path d="M423.132,198.372l1.795,0.299c-0.641,0.636-1.328,1.108-2.066,1.412c-0.738,0.305-1.502,0.453-2.297,0.447
		c-1.104-0.01-1.805-0.275-2.098-0.796c-0.355-0.606-0.215-1.452,0.426-2.532c0.629-1.063,1.488-1.913,2.58-2.548
		c0.926-0.534,1.869-0.798,2.828-0.789c1.068,0.009,1.74,0.292,2.02,0.852c0.322,0.637,0.119,1.571-0.611,2.805l-0.119,0.191
		l-4.941-0.043c-0.287,0.505-0.355,0.897-0.207,1.177c0.148,0.28,0.441,0.421,0.883,0.426
		C421.96,199.277,422.563,198.977,423.132,198.372 M424.245,196.665c0.275-0.498,0.346-0.872,0.209-1.127
		c-0.139-0.252-0.402-0.381-0.797-0.384c-0.416-0.004-0.846,0.124-1.283,0.382c-0.447,0.262-0.811,0.63-1.084,1.103L424.245,196.665
		z"/>
	<polygon points="429.632,200.459 434.821,191.675 441.88,191.736 441.001,193.224 436.019,193.179 434.79,195.259 439.104,195.295 
		438.228,196.782 433.911,196.744 431.704,200.479 	"/>
	<path d="M443.921,198.556l1.795,0.299c-0.641,0.635-1.328,1.107-2.066,1.411c-0.738,0.305-1.5,0.453-2.299,0.447
		c-1.104-0.01-1.803-0.274-2.096-0.797c-0.355-0.606-0.215-1.45,0.426-2.53c0.629-1.064,1.488-1.914,2.58-2.548
		c0.926-0.535,1.867-0.8,2.826-0.791c1.07,0.01,1.742,0.293,2.02,0.852c0.322,0.637,0.121,1.572-0.607,2.806l-0.121,0.191
		l-4.943-0.044c-0.285,0.505-0.354,0.899-0.205,1.178c0.146,0.28,0.441,0.422,0.883,0.425
		C442.749,199.461,443.353,199.161,443.921,198.556 M445.034,196.848c0.275-0.498,0.346-0.872,0.209-1.126
		c-0.137-0.252-0.404-0.381-0.797-0.385c-0.416-0.004-0.846,0.124-1.285,0.383c-0.447,0.262-0.809,0.63-1.082,1.103L445.034,196.848
		z"/>
	<path d="M446.769,198.791l2.133-0.24c-0.225,0.67,0.107,1.007,1,1.016c0.475,0.004,0.865-0.059,1.176-0.185
		c0.309-0.124,0.525-0.288,0.645-0.493c0.084-0.139,0.096-0.251,0.041-0.331c-0.061-0.081-0.234-0.153-0.52-0.216
		c-1.441-0.315-2.303-0.612-2.58-0.888c-0.35-0.346-0.348-0.813,0.004-1.407c0.35-0.593,0.896-1.064,1.645-1.415
		c0.748-0.353,1.633-0.524,2.654-0.516c0.979,0.01,1.641,0.149,1.992,0.419c0.35,0.269,0.455,0.702,0.311,1.294l-2.033,0.278
		c0.137-0.514-0.18-0.773-0.949-0.779c-0.486-0.005-0.859,0.041-1.125,0.139c-0.264,0.095-0.441,0.223-0.531,0.378
		c-0.084,0.14-0.059,0.257,0.076,0.351c0.129,0.098,0.631,0.248,1.496,0.45c0.975,0.229,1.566,0.497,1.777,0.81
		c0.209,0.311,0.162,0.723-0.143,1.234c-0.363,0.615-0.967,1.12-1.805,1.514c-0.836,0.396-1.787,0.587-2.848,0.578
		c-0.965-0.008-1.656-0.182-2.07-0.521S446.585,199.433,446.769,198.791"/>
	<path d="M461.563,194.343l-0.795,1.342l-1.342-0.012l-1.518,2.569c-0.33,0.556-0.502,0.879-0.512,0.967
		c-0.014,0.161,0.1,0.242,0.344,0.245c0.186,0,0.48-0.051,0.889-0.155l-0.605,1.309c-0.555,0.162-1.121,0.241-1.697,0.238
		c-0.502-0.007-0.854-0.093-1.059-0.263c-0.203-0.172-0.262-0.415-0.178-0.733c0.057-0.23,0.295-0.705,0.715-1.416l1.645-2.778
		l-0.912-0.008l0.793-1.342l0.91,0.008l0.746-1.264l2.559-0.967l-1.326,2.247L461.563,194.343z"/>
	<path d="M459.181,200.719l3.76-6.365l1.98,0.019l-3.76,6.364L459.181,200.719z M463.452,193.491l0.922-1.558l1.977,0.019
		l-0.92,1.559L463.452,193.491z"/>
	<polygon points="465.247,200.772 465.983,194.381 468.05,194.399 467.538,197.66 467.308,198.748 468.368,197.669 471.714,194.433 
		473.735,194.448 467.003,200.787 	"/>
	<path d="M475.272,196.41l-1.629-0.292c0.598-0.643,1.229-1.101,1.896-1.379c0.666-0.276,1.465-0.412,2.404-0.403
		c0.834,0.008,1.422,0.096,1.762,0.264c0.346,0.167,0.527,0.393,0.549,0.676c0.021,0.285-0.188,0.799-0.627,1.54l-1.18,1.97
		c-0.324,0.552-0.537,0.963-0.633,1.232c-0.096,0.271-0.148,0.559-0.158,0.864l-1.953-0.019l0.154-0.697
		c-0.504,0.277-0.988,0.484-1.457,0.624c-0.471,0.137-0.92,0.204-1.355,0.201c-0.725-0.007-1.217-0.183-1.479-0.528
		c-0.26-0.346-0.223-0.802,0.113-1.371c0.213-0.36,0.492-0.675,0.84-0.939c0.346-0.268,0.738-0.479,1.176-0.636
		s1.068-0.294,1.896-0.411c1-0.14,1.721-0.272,2.156-0.397c0.207-0.354,0.309-0.586,0.303-0.696
		c-0.008-0.111-0.086-0.203-0.234-0.275c-0.148-0.073-0.4-0.11-0.746-0.112c-0.355-0.004-0.668,0.05-0.934,0.159
		C475.868,195.895,475.579,196.103,475.272,196.41 M477.101,197.805c-0.295,0.068-0.736,0.15-1.326,0.242
		c-0.674,0.106-1.146,0.228-1.416,0.361c-0.27,0.136-0.471,0.312-0.596,0.526c-0.145,0.245-0.164,0.451-0.051,0.62
		c0.107,0.166,0.32,0.253,0.635,0.256c0.281,0.002,0.596-0.062,0.951-0.195c0.352-0.13,0.635-0.288,0.852-0.472
		c0.213-0.183,0.465-0.518,0.752-1.002L477.101,197.805z"/>
	<polygon points="479.181,200.895 484.374,192.11 486.353,192.127 481.163,200.912 	"/>
	<path d="M359.733,199.989l-1.979-0.019l1.924-3.25c0.383-0.651,0.604-1.088,0.656-1.303c0.053-0.217,0.014-0.385-0.119-0.502
		c-0.135-0.117-0.33-0.179-0.588-0.18c-0.33-0.003-0.676,0.07-1.031,0.215c-0.355,0.149-0.668,0.354-0.934,0.617
		c-0.264,0.264-0.611,0.761-1.043,1.493l-1.707,2.886l-1.98-0.019l3.762-6.363l1.832,0.017l-0.547,0.929
		c0.537-0.357,1.063-0.623,1.576-0.801c0.518-0.175,1.023-0.262,1.518-0.256c0.578,0.005,1.002,0.115,1.273,0.327
		c0.273,0.213,0.391,0.485,0.346,0.817c-0.043,0.33-0.25,0.809-0.619,1.432L359.733,199.989z"/>
</g>
<g display="none">
	<path display="inline" fill-rule="evenodd" clip-rule="evenodd" d="M115.265,115.066c0.311,1.585,0.59,3.003,0.898,4.578
		c1.206,0,2.306,0.01,3.406-0.002c2.063-0.022,4.388,1.522,5.113,3.409c0.442,1.154,0.216,2.269-0.729,3.031
		c-2.355,1.898-6.354,1.871-7.549-1.948c-0.504-1.608-1.355-3.107-2.06-4.651c-0.559-1.225-1.183-2.422-1.688-3.668
		c-0.372-0.919-0.981-1.557-1.809-2.126c-1.004,1.405-1.899,2.773-2.916,4.047c-0.763,0.958-1.584,1.919-2.549,2.655
		c-2.001,1.526-4.554,1.282-6.162-0.654c-0.841-1.013-1.478-2.268-1.934-3.513c-0.701-1.917-1.167-3.921-1.774-6.029
		c-3.841,1.207-7.27,3.156-10.722,5.943c0.461-2.007,0.823-3.578,1.173-5.103c-1.261-0.842-1.261-0.842-2.482-0.321
		c0.165,0.473,0.332,0.953,0.551,1.583c-0.643,0.854-1.298,1.832-2.063,2.714c-0.825,0.952-0.892,1.835-0.008,2.838
		c1.048-0.445,2.116-0.897,3.187-1.353c0.501,1.487,0.161,2.804-1.231,3.359c-2.104,0.838-3.605,2.377-5.236,3.799
		c-0.439,0.383-0.91,0.757-1.424,1.025c-1.778,0.93-3.347,0.037-3.445-1.969c-0.04-0.816,0.032-1.646,0.125-2.46
		c0.093-0.814,0.278-1.617,0.463-2.658c-0.925,0.043-1.801-0.042-2.613,0.143c-4.459,1.017-8.899,2.117-13.354,3.151
		c-1.673,0.388-2.549,1.36-2.989,3.042c-1.614,6.165-7.707,9.073-13.569,6.617c-2.895-1.214-2.772-3.502-1.314-5.162
		c1.721-1.958,3.419-3.854,5.896-4.905c1.017-0.432,1.905-1.158,2.883-1.692c2.288-1.248,3.287-1.128,5.256,0.544
		c0.308,0.261,0.626,0.508,1.007,0.814c4.391-3.384,9.545-4.064,14.802-4.397c2.577-0.163,5.151-0.381,7.729-0.517
		c1.466-0.079,2.393-0.748,2.901-2.338c-1.701-0.188-3.31-0.316-4.903-0.556c-1.389-0.209-2.782-0.464-4.133-0.84
		c-1.757-0.489-2.77-1.753-2.988-3.545c-0.199-1.629-0.262-3.277-0.368-4.917c-0.022-0.349-0.004-0.708,0.052-1.054
		c0.379-2.307,1.206-2.797,3.376-1.937c2.564,1.017,5.11,2.076,7.662,3.122c1.645,0.674,2.928,1.765,3.613,3.423
		c0.428,1.036,1.182,1.53,2.205,1.817c3.833,1.076,5.351,0.899,9.555-1.245c-0.688-4.922-1.383-9.896-2.093-14.98
		c-0.749,0-1.33-0.004-1.909,0c-4.937,0.042-9.874,0.037-14.807,0.146c-4.46,0.098-8.917,0.354-13.377,0.478
		c-1.914,0.053-3.057,1.026-3.702,2.717c-1.468,3.846-1.985,7.836-1.699,11.928c0.132,1.884,0.325,3.754-0.523,5.536
		c-0.608,1.278-1.625,2.039-3.031,2.071c-1.335,0.031-2.36-0.638-2.993-1.829c-0.329-0.622-0.649-1.255-0.897-1.912
		c-1.306-3.458-2.659-6.9-3.863-10.395c-1.739-5.05-3.222-10.169-4.27-15.423c-0.619-3.103,0.212-5.299,2.763-7.146
		c3.423-2.479,7.202-3.9,11.344-4.449c1.336-0.177,2.686-0.316,4.032-0.34c9.633-0.171,19.267-0.309,28.9-0.46
		c0.462-0.007,0.924-0.048,1.62-0.087c0.122-4.216-0.433-8.292-1.337-12.496c-0.568,0-1.082-0.043-1.586,0.006
		c-5.14,0.506-10.281,0.997-15.415,1.558c-2.797,0.306-5.581,0.742-8.372,1.114c-1.114,0.148-2.094-0.223-2.971-0.86
		c-1.659-1.206-2.488-3.733,0.298-5.23c5.907-3.173,11.969-5.982,18.282-8.242c11.522-4.125,23.375-6.983,35.389-9.221
		c5.198-0.968,10.432-1.658,15.709-1.986c2.937-0.183,5.872-0.119,8.756,0.588c2.747,0.673,4.734,2.29,5.893,4.862
		c1.197,2.657,1.811,5.446,1.755,8.376c-0.037,1.953-0.911,3.47-2.617,4.269c-1.519,0.711-3.175,1.334-4.825,1.52
		c-3.788,0.426-7.608,0.563-11.416,0.815c-2.924,0.193-5.85,0.382-8.969,0.585c-0.459,4.917-0.908,9.738-1.373,14.716
		c1.675,0.136,3.177,0.306,4.686,0.373c4.224,0.19,8.457,0.246,12.674,0.525c5.794,0.385,11.628,0.309,17.368,1.367
		c4.323,0.797,8.375,2.309,11.96,4.899c4.455,3.218,6.998,7.511,7.171,13.088c0.05,1.605-0.226,3.151-0.806,4.652
		c-2.25,5.815-4.899,11.445-8.045,16.823c-1.239,2.119-2.776,4.068-4.229,6.057c-0.409,0.559-0.948,1.058-1.515,1.459
		c-1.349,0.955-3.238,0.841-4.42-0.183c-1.24-1.075-1.712-3.1-0.749-4.488c1.16-1.67,1.284-3.449,1.268-5.36
		c-0.035-4.29,0.019-8.58,0.046-12.87c0.011-1.768-0.007-1.836-1.717-2.303c-5.616-1.533-11.311-2.652-17.116-3.142
		c-5.615-0.474-11.232-0.905-16.85-1.336c-0.75-0.057-1.51-0.007-2.426-0.007c-0.327,1.615-0.666,3.153-0.945,4.701
		c-0.594,3.292-1.137,6.591-1.745,9.88c-0.153,0.826-0.038,1.516,0.561,2.098c0.979,0.953,1.643,2.348,3.39,2.415
		c0.217-0.388,0.452-0.778,0.658-1.183c2.692-5.278,7.739-7.861,13.589-6.901c1.62,0.265,3.237,0.591,4.822,1.016
		c0.706,0.189,1.417,0.589,1.972,1.07c0.978,0.847,1.003,1.828,0.065,2.742c-1.892,1.844-3.805,3.672-5.798,5.404
		c-1.553,1.35-3.344,2.356-5.361,2.81c-0.117,1.565,1.461,2.883,0.378,4.505c-1.357-0.39-1.838-1.363-1.996-2.597
		c-0.289-2.26-0.503-2.49-2.697-3.049c-1.137-0.29-2.267-0.606-3.397-0.918C117.553,114.65,116.525,114.665,115.265,115.066z"/>
	<path display="inline" fill-rule="evenodd" clip-rule="evenodd" d="M460.881,154.661c-0.346-0.817-0.611-1.461-0.888-2.098
		c-1.033-2.374-0.684-4.571,0.801-6.647c1.743-2.439,4.193-3.717,7.059-4.251c1.469-0.273,2.637,0.498,2.818,1.972
		c0.308,2.503,0.543,5.024,0.601,7.543c0.046,2.004-0.865,2.973-2.808,3.52c-0.45,0.127-0.911,0.222-1.372,0.313
		c-3.853,0.766-6.651,3.008-8.907,6.406c3.267,0.813,6.421,1.596,9.457,2.351c0.225-0.202,0.366-0.268,0.387-0.359
		c0.603-2.816,2.599-4.358,5.028-5.495c1.71-0.801,3.482-1.46,5.387-1.51c0.919-0.023,1.899,0.076,2.756,0.383
		c1.613,0.58,2.309,2.031,1.504,3.543c-1.263,2.374-2.601,4.759-4.269,6.853c-1.756,2.209-4.436,2.624-7.079,2.065
		c-1.11-0.234-2.063-1.217-3.408-2.061c-2.189,0.474-4.687-0.046-7.131-0.98c-1.64-0.627-3.299-0.703-5.016-0.283
		c-3.076,0.753-6.169,1.439-9.255,2.163c-0.278,0.066-0.544,0.191-0.979,0.348c0.435,2.122,0.865,4.224,1.317,6.434
		c0.596,0.046,1.106,0.116,1.615,0.117c4.291,0.009,8.584,0.066,12.871-0.015c3.522-0.065,7.041-0.264,10.556-0.492
		c0.709-0.046,1.395-0.481,2.085-0.753c0.647-0.254,1.265-0.624,1.932-0.779c3.892-0.9,7.351-2.769,10.72-4.807
		c0.58-0.351,1.069-1.105,1.271-1.773c0.479-1.586,1.317-2.884,2.597-3.889c3.646-2.863,7.758-4.058,12.373-3.324
		c1.583,0.252,1.776,0.593,1.337,2.097c-0.646,2.207-1.458,4.343-2.764,6.256c-2.134,3.131-6.212,4.76-9.885,3.741
		c-1.296-0.36-2.444-1.249-3.903-2.027c-1.095,1.434-2.357,3.088-3.643,4.771c1.632,2.986,3.994,5.123,6.73,7.083
		c0.415-0.502,0.771-0.945,1.142-1.376c1.99-2.321,4.721-2.741,7.251-1.073c2.017,1.327,3.476,3.154,4.459,5.342
		c0.646,1.439,0.327,2.426-1.019,3.325c-1.942,1.298-4.104,2.03-6.425,2.212c-2.514,0.197-4.309-1.089-4.988-3.529
		c-0.268-0.955-0.403-1.946-0.637-3.104c-0.754-0.092-1.545-0.238-2.342-0.275c-1.63-0.076-2.943-0.716-3.932-2.019
		c-0.57-0.748-1.146-1.49-1.711-2.242c-0.523-0.696-1.033-1.402-1.641-2.229c-0.56,0.4-1.132,0.643-1.458,1.073
		c-0.982,1.305-2.324,1.662-3.847,1.785c-2.457,0.199-4.908,0.475-7.361,0.728c-0.222,0.023-0.438,0.119-0.784,0.22
		c0.147,0.418,0.239,0.799,0.411,1.138c0.901,1.781,1.842,3.542,2.731,5.328c0.779,1.565,2.008,2.321,3.751,2.503
		c1.271,0.132,2.526,0.492,3.76,0.85c1.25,0.36,2.179,1.226,2.676,2.399c0.476,1.124,0.919,2.313,1.074,3.512
		c0.392,3.048,0.201,6.106-0.354,9.123c-0.119,0.648-0.526,1.324-0.987,1.813c-0.93,0.991-2.286,0.924-2.998-0.23
		c-0.801-1.302-1.938-1.772-3.329-2c-1.927-0.316-3.502-1.285-4.781-2.758c-1.473-1.692-1.721-3.566-0.776-5.563
		c0.423-0.897,1.016-1.714,1.541-2.562c0.303-0.492,0.623-0.974,1.026-1.6c-2.86-1.104-4.169-3.428-5.237-5.959
		c-0.875-2.075-2.439-3.584-4.188-4.9c-0.483-0.364-1.174-0.543-1.792-0.619c-0.927-0.113-1.876-0.059-2.815-0.08
		c-0.849-0.02-1.542,0.249-2.267,0.758c-0.893,0.624-1.94,1.121-2.992,1.407c-1.96,0.532-3.772,1.269-5.316,2.622
		c-0.437,0.383-0.946,0.718-1.477,0.95c-4.215,1.849-8.563,3.311-13.196,3.441c-2.986,0.085-5.982-0.213-8.973-0.33
		c-0.564-0.021-1.129-0.003-2.119-0.003c2.116,2.849,3.181,5.956,6.431,7.419c2.453,1.104,4.736,2.583,7.186,3.946
		c0.482-0.463,0.929-0.914,1.399-1.34c2.048-1.858,4.37-2.201,6.822-0.927c2.249,1.169,4.379,2.529,6.143,4.382
		c1.183,1.243,2.158,2.627,2.722,4.307c-0.132,0.193-0.313,0.366-0.384,0.576c-1.032,3.039-3.561,3.667-6.304,3.848
		c-2.589,0.17-5.167,0.025-7.688-0.666c-0.508-0.14-1.021-0.286-1.503-0.495c-1.926-0.84-2.649-2.067-2.419-4.196
		c0.074-0.692,0.303-1.37,0.473-2.052c0.332-1.322,0.185-1.688-1.108-2.105c-1.899-0.61-3.798-1.253-5.741-1.686
		c-3.223-0.719-5.656-2.43-7.437-5.197c-1.046-1.629-2.257-3.151-3.357-4.747c-0.745-1.08-1.659-1.756-3.029-1.832
		c-2.697-0.151-5.388-0.385-8.08-0.579c-6.499-0.47-13.003-0.895-19.497-1.424c-2.979-0.242-5.968-0.538-8.904-1.072
		c-4.147-0.754-7.326-3.023-9.414-6.746c-0.541-0.962-1.157-1.881-1.883-3.051c-0.226,0.531-0.424,0.804-0.449,1.092
		c-0.218,2.337-0.366,4.682-0.618,7.015c-0.101,0.919-0.271,1.882-0.659,2.708c-1.162,2.479-3.986,3.374-6.435,2.142
		c-1.256-0.632-1.944-1.683-2.106-3.051c-0.104-0.873-0.128-1.759-0.131-2.639c-0.013-3.76-0.006-7.52-0.006-11.367
		c-0.449-0.189-0.855-0.396-1.283-0.533c-4.521-1.465-9.053-2.903-13.567-4.388c-0.828-0.272-1.646-0.645-2.386-1.102
		c-1.014-0.627-1.307-1.54-0.993-2.574c0.278-0.92,0.949-1.374,2.169-1.442c0.408-0.024,0.817-0.005,1.386-0.005
		c-0.054-0.493-0.052-0.937-0.154-1.353c-0.658-2.679-1.34-5.352-2.015-8.024c-0.158-0.622-0.495-1.416,0.229-1.73
		c0.568-0.246,1.346-0.07,2.021,0.011c0.253,0.03,0.482,0.311,0.706,0.499c1.795,1.506,3.534,3.087,5.395,4.509
		c2.252,1.723,3.69,3.754,3.305,6.739c-0.129,0.986,0.405,1.544,1.32,1.778c1.135,0.292,2.274,0.572,3.589,0.901
		c0.101-0.682,0.266-1.301,0.273-1.921c0.154-14.688,0.295-29.376,0.43-44.065c0.006-0.574-0.071-1.147-0.119-1.846
		c-0.52,0.057-0.921,0.049-1.291,0.155c-0.448,0.128-0.856,0.388-1.302,0.53c-2.616,0.837-4.276,0.449-5.896-1.77
		c-1.482-2.032-2.794-4.205-4.008-6.411c-0.932-1.689-1.646-3.506-2.362-5.305c-0.976-2.456-0.274-4.291,1.999-5.673
		c1.744-1.06,3.72-0.953,5.626-1.207c2.269-0.302,4.539-0.581,6.808-0.882c0.165-0.022,0.315-0.142,0.545-0.251
		c0-4.255,0-8.527,0-13.047c-1.214-0.075-2.415-0.163-3.616-0.218c-0.881-0.041-1.768,0.019-2.642-0.069
		c-1.891-0.193-2.659-1.052-3.046-3.268c-0.308-1.766,0.151-2.861,1.812-3.558c1.836-0.77,3.744-1.369,5.642-1.978
		c1.933-0.62,2.146-0.868,2.155-2.834c0.009-2.409-0.027-4.821,0.077-7.227c0.138-3.124,1.332-4.686,4.401-5.299
		c3.677-0.735,7.398-1.303,11.125-1.73c3.167-0.363,5.257,1.899,5.067,5.249c-0.098,1.747-0.315,3.488-0.502,5.463
		c0.992-0.068,1.844-0.17,2.694-0.173c1.574-0.006,3.166-0.09,4.718,0.107c2.051,0.261,3.549,1.516,4.558,3.281
		c1.425,2.492,2.17,5.2,2.159,8.073c-0.01,2.479-1.314,3.972-3.773,4.28c-1.329,0.167-2.689,0.107-4.036,0.115
		c-2.57,0.014-5.139,0.003-7.901,0.003c-0.428,4.096-0.851,8.152-1.293,12.383c0.853,0.063,1.54,0.152,2.228,0.156
		c2.821,0.018,5.644-0.024,8.464,0.026c0.989,0.018,2.009,0.116,2.956,0.385c2.843,0.81,3.585,3.978,1.366,5.922
		c-0.822,0.721-1.841,1.269-2.852,1.712c-3.761,1.652-7.531,3.288-11.349,4.805c-1.639,0.65-2.359,1.669-2.505,3.406
		c-0.369,4.385-0.874,8.759-1.316,13.138c-0.062,0.611-0.071,1.227-0.125,2.171c0.608-0.446,0.94-0.649,1.226-0.904
		c2.692-2.403,5.887-3.705,9.444-3.823c3.219-0.107,6.451,0.138,9.676,0.246c0.344,0.012,0.701,0.102,1.025,0.228
		c1.644,0.643,1.955,1.874,0.693,3.092c-2.365,2.286-4.73,4.583-7.216,6.733c-3.194,2.763-6.92,4.409-11.182,4.656
		c-1.341,0.078-2.689,0.013-4.107,0.013c-0.969,1.778-3.631,25.525-3.225,29.636c1.178,0.266,2.411,0.609,3.665,0.814
		c4.295,0.708,7.718,2.738,9.967,6.529c1.174,1.979,2.904,3.061,5.135,3.289c4.203,0.433,8.409,0.862,12.624,1.146
		c4.275,0.287,8.562,0.545,12.844,0.547c4.989,0.002,9.979-0.236,14.964-0.471c3.694-0.175,7.379-0.504,11.067-0.776
		c2.521-0.186,4.997-0.604,7.421-1.434c0.134-3.28,0.266-6.5,0.397-9.719c0.019-0.47-0.007-0.947,0.07-1.406
		c0.224-1.326,1.13-2.276,2.412-2.066c2.677,0.435,4.92-0.897,7.338-1.504c0.407-0.103,0.915-0.444,1.07-0.806
		C456.268,158.547,458.322,156.494,460.881,154.661z"/>
	<path display="inline" fill-rule="evenodd" clip-rule="evenodd" d="M303.817,122.132c-0.829-2.161-1.618-4.216-2.528-6.589
		c-2.807-0.589-5.557-2.27-8.344-3.89c-1.736-1.009-3.585-1.274-5.601-0.855c-2.813,0.585-5.664,0.99-8.5,1.461
		c-0.849,0.141-1.615,0.314-1.695,1.406c-0.074,1.027,0.144,1.868,1.154,2.341c1.859,0.871,3.721,1.742,5.579,2.617
		c2.454,1.154,4.437,2.836,5.859,5.167c1.426,2.335,1.296,4.662,0.104,7.038c-0.52,1.03-1.281,1.412-2.419,1.328
		c-3.232-0.233-5.934-2.379-6.882-5.452c-0.437-1.417-0.205-2.626,0.686-3.798c0.516-0.68,0.885-1.472,1.401-2.354
		c-1.995-1.28-3.355-3.199-5.819-3.372c-0.317-0.022-0.678-0.404-0.89-0.708c-0.368-0.526-0.653-1.113-0.944-1.689
		c-0.728-1.444-1.017-1.646-2.614-1.389c-1.97,0.318-3.933,0.68-5.885,1.088c-9.992,2.086-20.01,4.065-29.956,6.353
		c-4.214,0.969-8.276,2.602-12.408,3.931c-0.725,0.233-1.442,0.502-2.183,0.675c-2.253,0.528-3.627-0.291-4.16-2.573
		c-0.415-1.769-0.688-3.57-1.026-5.357c-0.108-0.577-0.256-1.147-0.332-1.728c-0.253-1.96,0.116-2.881,1.881-3.738
		c1.947-0.944,3.93-1.952,6.013-2.447c3.872-0.921,7.81-1.618,11.753-2.173c4.59-0.646,9.215-1.035,13.824-1.546
		c0.465-0.051,0.925-0.161,1.383-0.26c0.713-0.153,1.104-0.635,1.264-1.315c0.065-0.283,0.105-0.583,0.092-0.873
		c-0.213-5.034,0.87-9.924,1.641-14.849c0.217-1.384,0.085-1.821-1.098-2.467c-2.061-1.125-4.161-2.179-6.24-3.273
		c-0.807-0.425-1.544-0.415-2.279,0.187c-2.184,1.785-4.388,3.545-6.574,5.326c-0.123,0.1-0.166,0.297-0.289,0.534
		c0.294,0.265,0.561,0.568,0.884,0.789c3.487,2.39,6.974,4.78,10.479,7.141c1.537,1.035,2.154,2.316,1.674,3.689
		c-0.533,1.522-2.033,2.374-3.838,2.008c-1.606-0.326-3.188-0.787-4.764-1.249c-4.222-1.239-8.434-2.512-12.651-3.77
		c-0.562-0.168-1.128-0.323-1.685-0.506c-3.722-1.227-3.99-1.525-3.727-5.39c0.095-1.381,0.406-2.809,0.927-4.09
		c2.877-7.066,5.854-14.092,8.781-21.137c0.491-1.179,1.291-1.943,2.564-2.16c1.152-0.196,2.305-0.498,3.463-0.535
		c4.99-0.163,9.982-0.264,14.975-0.34c0.929-0.014,1.881,0.105,2.789,0.311c3.014,0.682,4.132,3.608,2.311,6.112
		c-0.579,0.796-1.38,1.434-2.095,2.126c-0.532,0.515-1.09,1.001-1.636,1.5c0.04,0.126,0.081,0.252,0.121,0.379
		c0.607,0.024,1.216,0.089,1.821,0.067c3.58-0.126,7.159-0.283,10.739-0.404c0.701-0.024,1.425-0.022,2.105,0.12
		c1.951,0.408,2.892,2.141,2.208,4.016c-0.199,0.546-0.488,1.066-0.777,1.574c-4.593,8.062-9.193,16.119-13.789,24.179
		c-0.255,0.449-0.484,0.913-0.836,1.576c0.677,0.078,1.18,0.212,1.675,0.182c6.855-0.423,13.71-0.869,20.565-1.312
		c1.347-0.086,2.691-0.201,4.04-0.268c0.904-0.044,1.569-0.37,1.922-1.258c0.67-1.686,1.775-3.024,3.458-3.995
		c-0.249-0.457-0.466-0.848-0.68-1.24c-0.419-0.771-0.923-1.511-1.241-2.322c-0.983-2.51-0.198-4.524,2.171-5.751
		c0.62-0.322,1.254-0.614,2.008-0.98c0-0.596-0.006-1.171,0.001-1.746c0.029-2.41,0.072-4.818,0.088-7.228
		c0.013-1.833,0.768-3.328,2.174-4.43c1.431-1.121,2.935-2.158,4.468-3.136c1.201-0.768,2.024-0.617,2.956,0.446
		c0.458,0.522,0.897,1.123,1.13,1.766c0.579,1.598,1.144,3.215,1.511,4.869c0.422,1.895-0.175,3.601-1.479,5.04
		c-1.867,2.058-4.135,3.538-6.844,4.096c-2.078,0.428-3.446,1.573-4.55,3.261c-0.749,1.149-0.872,2.27-0.199,3.474
		c0.624,1.118,1.235,2.242,1.955,3.55c3.689-0.62,7.482-1.256,11.396-1.914c-0.068-0.512-0.112-0.903-0.174-1.292
		c-0.371-2.374,0.316-4.418,1.949-6.148c3.401-3.602,7.608-5.157,12.525-4.912c1.027,0.052,1.62,0.567,1.883,1.534
		c0.293,1.072,0.654,2.129,0.891,3.212c0.467,2.137-0.078,3.987-1.847,5.337c-0.831,0.635-1.73,1.254-2.698,1.622
		c-2.864,1.091-5.815,1.854-8.926,1.729c-1.714-0.07-3.361,0.128-5.016,0.688c-3.689,1.246-7.479,1.99-11.413,1.817
		c-1.725-0.076-1.862,0.085-2.253,1.756c-0.116,0.498-0.191,1.006-0.306,1.619c1.739,0,3.308-0.009,4.878,0.003
		c0.936,0.007,1.884-0.048,2.804,0.086c2.644,0.389,3.572,2.196,2.417,4.578c-0.126,0.26-0.293,0.501-0.517,0.88
		c2.656,2.028,5,4.401,8.537,4.95c1.416,0.219,2.778,0.925,4.105,1.538c1.222,0.564,2.249,0.594,3.466-0.14
		c5.459-3.293,12.342-2.149,17.028,1.928c2.473,2.152,2.66,5.639,0.515,8.206c-4.364,5.221-12.493,4.985-16.519-0.505
		c-1.429-1.948-2.721-3.991-3.184-6.417c-0.194-1.017-0.711-1.449-1.742-1.618c-1.61-0.265-3.199-0.443-5.003-0.442
		c0.257,1.96,0.368,3.665,0.747,5.307c0.167,0.725,0.775,1.434,1.354,1.961c2.456,2.236,3.42,4.99,3.068,8.243
		c-0.269,2.493-1.965,3.886-4.451,3.693c-4.913-0.377-7.796-4.718-6.161-9.265c0.452-1.258,1.204-2.273,2.327-3.009
		C303.076,122.657,303.499,122.352,303.817,122.132z"/>
	<path display="inline" fill-rule="evenodd" clip-rule="evenodd" d="M299.381,173.168c0.221,3.124,0.416,5.864,0.601,8.605
		c0.014,0.205-0.062,0.416-0.148,0.954c-2.679-2.678-4.131-5.667-5.091-9.059c-0.368,0.092-0.716,0.11-0.996,0.257
		c-1.804,0.941-3.632,0.879-5.436,0.082c-1.124-0.497-2.193-1.119-3.268-1.721c-0.897-0.504-1.806-0.846-2.954-0.498
		c0,0.88-0.105,1.807,0.018,2.701c0.629,4.553,0.895,9.121,0.526,13.703c-0.275,3.457-0.855,6.87-2.076,10.142
		c-0.843,2.258-2.147,4.153-4.224,5.476c-3.061,1.949-7.494,2.025-10.486-1.088c-4.681-4.872-9.446-9.662-14.19-14.473
		c-1.195-1.212-2.438-2.377-3.676-3.548c-0.706-0.669-1.312-1.381-1.076-2.44c0.257-1.153,1.202-1.685,2.192-1.755
		c1.744-0.126,3.515-0.087,5.261,0.054c2.679,0.216,5.346,0.576,8.093,0.883c0.694-2.401,0.556-4.811,0.544-7.193
		c-0.046-8.963-2.041-17.599-4.881-26.015c-2.022-5.994-4.553-11.819-6.905-17.7c-0.388-0.97-1.07-1.818-1.529-2.766
		c-0.207-0.426-0.422-1.081-0.238-1.416c0.33-0.604,1.002-0.655,1.704-0.399c1.351,0.489,2.512,1.223,3.54,2.233
		c1.968,1.932,3.912,3.899,6.004,5.692c4.635,3.975,8.546,8.548,11.775,13.718c0.28,0.448,0.567,0.892,0.868,1.325
		c0.098,0.141,0.249,0.242,0.46,0.443c3.192-2.135,6.75-2.348,10.448-1.849c1.157,0.155,2.345,0.104,3.519,0.112
		c2.731,0.02,5.187-0.812,7.42-2.38c1.006-0.706,2.057-1.358,3.136-1.947c0.553-0.302,1.202-0.523,1.825-0.574
		c0.91-0.074,1.411,0.763,0.908,1.536c-0.334,0.514-0.848,0.974-1.383,1.282c-2.288,1.319-4.612,2.575-6.925,3.853
		c-0.508,0.28-1.019,0.555-1.611,0.878c0.678,1.232,1.24,2.466,2.008,3.555c0.361,0.513,1.074,0.928,1.7,1.069
		c1.072,0.241,2.198,0.233,3.361,0.335c0.122-0.338,0.263-0.594,0.306-0.865c0.509-3.259,3.045-4.37,5.779-4.134
		c3.156,0.272,5.826,1.751,7.978,4.079c1.477,1.601,0.976,3.155-1.104,3.58c-1.783,0.364-3.585,0.636-5.349,1.066
		c-3.019,0.737-5.5,0.239-7.017-2.927c-1.184,0.269-2.313,0.517-3.438,0.782c-0.627,0.147-1.251,0.313-1.874,0.485
		c-1.29,0.36-2.332-0.019-3.078-1.105c-0.697-1.015-1.319-2.081-1.99-3.114c-0.77-1.186-0.986-1.302-2.308-0.903
		c-1.108,0.335-2.182,0.787-3.514,1.278c0.544,1.397,0.892,2.699,1.527,3.84c1.803,3.229,3.731,6.387,5.591,9.584
		c0.843,1.447,1.993,1.954,3.687,1.667c2.909-0.49,5.718,0.14,8.457,1.128c1.533,0.553,3.069,1.097,4.726,1.688
		c0.269-0.645,0.497-1.168,0.708-1.698c1.11-2.795,3.054-4.165,6.02-3.769c2.01,0.268,4.037,0.827,5.91,1.609
		c4.243,1.772,8.125,4.212,11.723,7.085c2.034,1.626,3.486,3.645,4.432,6.095c-1.964,1.829-4.355,2.968-6.934,3.539
		c-3.508,0.776-7.084,1.006-10.673,0.455c-3.844-0.588-6.586-2.664-8.233-6.155c-0.55-1.162-0.984-2.388-1.36-3.618
		c-0.401-1.311-1.174-1.963-2.564-1.91C303.514,173.076,301.421,173.114,299.381,173.168z"/>
	<path display="inline" fill-rule="evenodd" clip-rule="evenodd" d="M391.907,160.472c0.379-7.62,0.731-15.24,1.143-22.858
		c0.337-6.269,0.694-12.537,1.138-18.8c0.195-2.745,0.634-5.473,0.944-8.21c0.263-2.328,1.592-3.756,3.634-4.802
		c5.353-2.74,11.026-4.62,16.717-6.471c2.677-0.871,5.352-1.747,8.047-2.555c0.945-0.283,1.95-0.521,2.928-0.521
		c2.364,0.001,3.87,1.55,4.366,4.029c0.508,2.537,0.208,5.056-0.165,7.529c-0.787,5.215-1.739,10.409-2.757,15.585
		c-0.601,3.064-1.889,5.909-3.313,8.688c-0.726,1.417-1.97,2.141-3.328,2.729c-4.414,1.91-8.84,3.794-13.261,5.687
		c-0.108,0.047-0.222,0.079-0.329,0.125c-2.646,1.114-2.709,1.239-2.466,4.038c0.091,1.051,0.137,2.107,0.154,3.163
		c0.035,2.105,0.261,2.448,2.256,3.238c3.599,1.425,7.184,2.887,10.805,4.259c1.192,0.452,2.457,0.763,3.715,0.98
		c1.494,0.26,2.486,1.002,2.897,2.455c0.336,1.188-0.212,2.41-1.483,3.308c-0.427,0.301-0.907,0.548-1.396,0.729
		c-7.92,2.934-15.846,5.853-24.085,7.803c-0.96,0.227-1.969,0.344-2.956,0.34c-1.692-0.008-2.598-0.886-2.762-2.554
		c-0.132-1.343-0.239-2.689-0.289-4.036c-0.049-1.29-0.012-2.583-0.012-3.874C392.002,160.475,391.954,160.474,391.907,160.472z
		 M403.546,113.255c0.479,7.355,0.937,14.35,1.409,21.586c4.781-1.837,9.287-3.569,13.978-5.372
		c-1.16-4.805-2.264-9.411-3.395-14.013c-0.169-0.693-0.676-1.021-1.419-1.092c-2.042-0.194-4.078-0.455-6.117-0.674
		C406.618,113.542,405.233,113.419,403.546,113.255z"/>
	<path display="inline" fill-rule="evenodd" clip-rule="evenodd" d="M90.354,163.907c-0.727-0.298-1.353-0.6-2.008-0.814
		c-2.062-0.676-4.136-1.316-6.202-1.978c-0.445-0.144-0.913-0.263-1.314-0.491c-1.603-0.911-1.698-2.977-0.083-3.84
		c1.061-0.566,2.29-1.011,3.478-1.112c4.093-0.349,8.201-0.516,12.302-0.765c6.679-0.409,13.357-0.84,20.036-1.236
		c3.048-0.182,6.099-0.33,9.149-0.433c0.808-0.027,1.65,0.072,2.431,0.283c2.093,0.566,2.89,1.913,2.303,3.986
		c-0.822,2.908-1.229,5.854-1.109,8.871c0.025,0.645,0.072,1.289,0.144,1.929c0.38,3.376-1.703,5.618-5.07,5.315
		c-1.215-0.109-2.419-0.458-3.599-0.801c-2.872-0.837-5.729-1.722-8.584-2.616c-1.104-0.345-2.012-0.215-2.893,0.626
		c-3.998,3.812-8.036,7.579-12.054,11.368c-0.25,0.236-0.449,0.526-0.785,0.927c0.55,0.266,0.993,0.513,1.461,0.7
		c3.592,1.448,7.195,2.868,10.779,4.335c0.918,0.377,1.835,0.808,2.655,1.359c1.435,0.966,2.021,2.371,1.804,4.109
		c-0.217,1.741-1.276,2.838-2.867,3.191c-2.338,0.521-4.722,0.887-7.104,1.143c-4.843,0.518-9.695,0.945-14.549,1.347
		c-1.096,0.091-2.221-0.015-3.319-0.149c-1.404-0.174-2.499-0.898-3.322-2.084c-0.838-1.205-1.725-2.38-2.656-3.513
		c-1.043-1.269-0.922-2.52-0.281-3.927c1.895-4.167,3.719-8.366,5.57-12.553c1.709-3.864,3.419-7.728,5.119-11.596
		C89.989,165.017,90.135,164.518,90.354,163.907z"/>
	<path display="inline" fill-rule="evenodd" clip-rule="evenodd" d="M463.172,84.74c0.479,0.195,0.785,0.378,1.115,0.445
		c4.234,0.853,6.737,5.734,5.829,10.048c-0.922,4.369-3.844,6.519-7.906,7.529c-2.097,0.522-4.2,0.487-6.272-0.07
		c-3.76-1.014-7.081-2.807-9.732-5.72c-2.729-2.996-5.477-5.976-8.178-8.998c-2.184-2.444-3.791-5.208-4.488-8.456
		c-0.803-3.74-2.906-4.821-6.88-4.749c-2.032,0.036-3.899,0.756-5.615,1.853c-1.629,1.04-3.27,2.063-5.238,3.305
		c1.016-2.017,2.372-3.255,3.799-4.411c1.493-1.208,3.243-1.972,5.136-2.14c1.84-0.165,3.704-0.036,5.722-0.036
		c-2.593-2.323-5.75-3.072-8.983-3.556c-3.286-0.492-6.4,0.289-9.524,1.5c0.243-0.25,0.463-0.529,0.733-0.745
		c3.04-2.414,6.573-2.629,10.209-2.166c3.704,0.472,7.001,1.901,9.742,4.5c0.127,0.118,0.284,0.204,0.434,0.292
		c0.043,0.025,0.109,0.01,0.309,0.022c0.19-0.406,0.431-0.854,0.617-1.322c2.914-7.311,8.448-11.173,16.11-12.176
		c4.196-0.55,8.091,0.337,11.436,2.984c3.78,2.992,5.333,6.995,5.03,11.786c-0.196,3.111-1.14,5.973-2.61,8.69
		C463.714,83.612,463.494,84.09,463.172,84.74z"/>
	<path display="inline" fill-rule="evenodd" clip-rule="evenodd" d="M184.991,132.204c2.135-0.338,4.275-0.647,6.402-1.024
		c1.308-0.231,2.571-0.214,3.795,0.33c2.093,0.928,2.703,2.663,1.434,4.561c-1.533,2.294-3.222,4.482-4.829,6.729
		c-0.64,0.893-1.239,1.815-1.87,2.744c2.468,1.119,3.801,0.917,5.514-0.857c1.35-1.397,2.752-2.686,5.015-3.372
		c-0.709,1.613-1.305,2.971-2.017,4.591c3.727-0.184,7.223-0.916,10.861,0.133c-0.3,0.325-0.509,0.635-0.792,0.845
		c-1.276,0.943-2.55,1.891-3.871,2.767c-0.516,0.343-1.15,0.511-1.739,0.741c-0.379,0.147-0.847,0.167-1.145,0.408
		c-1.25,1.006-2.726,1.225-4.241,1.517c-2.528,0.486-5.002,1.245-7.521,1.781c-1.372,0.293-2.795,0.324-4.185,0.546
		c-1.33,0.211-2.656,0.471-3.964,0.788c-1.857,0.448-2.996-0.209-3.209-2.121c-0.101-0.904,0.013-1.887,0.269-2.765
		c0.871-2.984,1.858-5.935,2.779-8.904c0.238-0.767,0.399-1.556,0.685-2.686c-1.036,0.337-1.795,0.541-2.521,0.829
		c-1.349,0.537-2.67,0.618-3.809-0.385c-1.161-1.023-1.456-2.36-1.041-3.854c1.83-6.58,2.57-13.359,3.673-20.072
		c0.393-2.39,1.16-3.114,3.556-3.256c3.046-0.182,6.09-0.417,9.136-0.596c0.758-0.044,1.539-0.052,2.285,0.072
		c2.464,0.405,3.615,2.354,2.678,4.682c-0.453,1.127-1.108,2.213-1.855,3.176c-2.915,3.758-5.904,7.458-8.863,11.184
		c-0.281,0.354-0.537,0.728-0.805,1.093C184.861,131.953,184.926,132.078,184.991,132.204z"/>
	<path display="inline" fill-rule="evenodd" clip-rule="evenodd" d="M195.44,199.543c-0.422-0.37-0.892-0.697-1.258-1.116
		c-3.437-3.927-5.977-8.385-7.944-13.211c-2.876-7.057-2.194-13.663,2.297-19.829c1.001-1.373,2.094-2.691,3.256-3.932
		c1.681-1.792,3.064-1.725,4.525,0.19c1.815,2.383,3.621,4.777,5.317,7.246c2.818,4.1,3.466,8.573,1.701,13.238
		c-1.411,3.729-3.009,7.391-4.629,11.034c-0.468,1.051-1.261,1.972-1.982,2.893c-0.761,0.974-1.809,1.813-0.688,3.36
		C195.837,199.459,195.639,199.5,195.44,199.543z"/>
	<path display="inline" fill-rule="evenodd" clip-rule="evenodd" d="M484.296,126.165c-1,0-1.877-0.015-2.752,0.003
		c-2.684,0.056-5.941-2.765-4.474-6.518c0.107-0.273,0.183-0.563,0.323-0.817c0.457-0.83,0.309-1.463-0.339-2.197
		c-1.546-1.75-1.728-3.755-0.827-5.904c1.319-3.146,4.317-4.499,7.852-3.508c1.757,0.492,3.162,1.507,4.334,2.872
		c0.529,0.617,1.03,1.26,1.56,1.911c1.445-2.593,0.538-4.561-3.341-7.39c2.359-0.92,3.685,0.355,5.838,5.633
		c1.527-0.319,3.047-0.71,4.59-0.939c1.693-0.251,2.438,0.293,3.039,2.151c-0.651-0.126-1.204-0.189-1.731-0.34
		c-2.12-0.611-4.025,0.111-5.324,2.031c1.373,0.396,2.779,0.728,4.133,1.212c1.528,0.547,2.745,1.569,3.667,2.908
		c1.667,2.428,1.426,5.251-0.584,7.408c-1.302,1.395-2.931,2.193-4.788,2.351c-0.964,0.08-1.452,0.453-1.895,1.239
		c-0.643,1.146-1.558,2.035-2.862,2.469c-2.094,0.695-4.215-0.05-5.283-1.975C484.979,127.952,484.679,127.055,484.296,126.165z"/>
	<path display="inline" fill-rule="evenodd" clip-rule="evenodd" d="M94.36,145.769c-1.115,0-2.232,0.029-3.345-0.011
		c-0.816-0.028-1.645-0.073-2.44-0.242c-2.081-0.439-3.369-1.813-3.326-3.938c0.054-2.63,0.26-5.274,0.649-7.875
		c0.349-2.338,1.976-3.602,4.349-3.457c1.741,0.105,3.515,0.39,5.179,0.9c5.88,1.808,11.728,3.721,17.57,5.649
		c2.193,0.724,3.456,2.354,3.891,4.602c0.248,1.278-0.021,1.958-1.236,2.372c-1.708,0.582-3.468,1.188-5.245,1.354
		c-2.557,0.236-5.15,0.063-7.727,0.114c-1.025,0.021-2.1-0.295-3.064,0.415c-0.239,0.176-0.68,0.101-1.029,0.104
		c-1.409,0.009-2.817,0.004-4.226,0.004C94.36,145.763,94.36,145.766,94.36,145.769z"/>
	<path display="inline" fill-rule="evenodd" clip-rule="evenodd" d="M219.892,158.1c-0.042,2.606-0.735,4.58-1.762,6.453
		c-1.634,2.981-3.264,5.964-4.916,8.936c-0.497,0.896-0.735,1.728-0.459,2.818c0.458,1.815-0.167,3.1-1.415,3.563
		c-1.212,0.45-2.556-0.125-3.559-1.6c-0.493-0.724-0.974-1.479-1.309-2.284c-1.375-3.296-2.8-6.577-4-9.938
		c-1.565-4.385-0.532-8.242,3.021-11.262c1.915-1.627,3.994-3.074,6.079-4.484c1.341-0.907,1.701-0.748,2.907,0.369
		c0.942,0.872,1.902,1.733,2.917,2.52C219.161,154.559,219.963,156.333,219.892,158.1z"/>
	<path display="inline" fill-rule="evenodd" clip-rule="evenodd" d="M146.741,196.119c-0.188,1.687-0.293,3.387-0.585,5.056
		c-0.312,1.777-1.876,2.499-3.458,1.634c-3.647-1.995-7.352-3.909-10.46-6.744c-0.389-0.354-0.805-0.684-1.188-1.045
		c-3.081-2.899-3.895-6.976-2.008-10.754c0.96-1.924,1.048-3.792,0.316-5.765c-0.202-0.546-0.438-1.114-0.457-1.679
		c-0.011-0.396,0.243-1.058,0.519-1.143c0.406-0.126,1.243,0.017,1.369,0.289c0.926,2.003,2.817,2.275,4.604,2.826
		c4.012,1.235,6.982,3.75,8.875,7.501C145.823,189.376,146.688,192.634,146.741,196.119z"/>
	<path display="inline" fill-rule="evenodd" clip-rule="evenodd" d="M133.642,128.895c0.871-1.518,1.73-2.916,2.491-4.365
		c0.584-1.116,0.222-1.942-1.039-2.288c-1.241-0.34-2.533-0.491-3.793-0.771c-1.06-0.236-2.105-0.537-3.215-0.823
		c0.253-1.157,1.115-1.15,1.7-1.19c2.872-0.201,5.618,0.306,8.111,1.827c1.038,0.634,1.729,1.536,2.074,2.738
		c0.759,2.65,1.573,5.285,2.374,7.923c0.185,0.613,0.403,1.215,0.66,1.979c0.673-0.13,1.289-0.25,1.905-0.367
		c2.409-0.462,3.813,0.14,5.025,2.236c1.88,3.253,3.107,6.705,3.049,10.524c-0.006,0.409-0.023,0.821-0.075,1.227
		c-0.02,0.159-0.152,0.305-0.297,0.572c-0.423-0.133-0.851-0.258-1.272-0.399c-1.221-0.412-2.443-0.818-3.655-1.252
		c-0.661-0.235-1.318-0.489-1.952-0.791c-4.293-2.04-5.361-5.814-5.223-10.104c0.043-1.363-0.132-2.528-0.853-3.666
		c-0.815-1.286-1.56-2.616-2.412-4.057c-0.834,0.715-1.574,1.348-2.372,2.03c0.214,0.434,0.391,0.793,0.569,1.151
		c1.124,2.266,0.946,4.424-0.544,6.466c-1.212,1.661-2.403,3.338-3.66,4.965c-1.224,1.585-3.103,1.367-3.665-0.501
		c-0.742-2.464-1.506-4.948-1.458-7.576c0.058-3.099,2.182-5.32,5.272-5.483C132.146,128.86,132.909,128.895,133.642,128.895z"/>
	<path display="inline" fill-rule="evenodd" clip-rule="evenodd" d="M230.483,174.98c0.449-1.441,1.083-2.734,2.09-3.814
		c3.766-4.034,7.513-8.087,11.344-12.059c0.922-0.954,2.116-1.658,3.232-2.408c1.135-0.762,2.446-0.783,3.742-0.6
		c1.219,0.172,2.43,0.407,3.631,0.669c1.326,0.289,1.872,0.915,2.023,2.299c0.252,2.307-0.268,4.392-1.659,6.301
		c-2.233,3.064-5.3,4.924-8.729,6.299c-2.693,1.079-5.49,1.736-8.402,1.613c-1.766-0.075-3.36,0.283-4.88,1.159
		C232.182,174.839,231.463,175.295,230.483,174.98z"/>
	<path display="inline" fill-rule="evenodd" clip-rule="evenodd" d="M229.009,149.692c0.275-0.319,0.511-0.688,0.833-0.95
		c2.467-2.008,4.659-4.277,6.667-6.747c1.905-2.345,4.269-4.185,6.899-5.664c1.867-1.051,3.84-1.41,5.923-0.688
		c1.208,0.419,2.056,1.253,2.21,2.509c0.329,2.695,0.109,5.297-1.963,7.368c-0.411,0.411-0.832,0.859-1.334,1.126
		c-3.273,1.738-6.606,3.361-10.398,3.54c-1.512,0.072-3.035-0.101-4.554-0.129c-1.378-0.024-2.757-0.005-4.135-0.005
		C229.107,149.933,229.058,149.813,229.009,149.692z"/>
	<path display="inline" fill-rule="evenodd" clip-rule="evenodd" d="M176.734,177.271c-1.058-0.699-1.571-1.639-1.617-2.929
		c-0.037-1.045-0.225-2.091-0.431-3.119c-0.567-2.836-0.512-5.595,0.767-8.26c0.855-1.779,2.124-3.063,4.031-3.7
		c0.541-0.182,1.047-0.508,1.525-0.831c1.104-0.746,1.32-0.752,2.277,0.112c3.068,2.768,3.75,7.634,1.406,11.099
		c-1.484,2.192-3.29,4.136-5.446,5.719C178.452,175.945,177.677,176.554,176.734,177.271z"/>
	<path display="inline" fill-rule="evenodd" clip-rule="evenodd" d="M204.828,140.425c0.506-0.718,0.986-1.438,1.508-2.126
		c0.742-0.981,1.421-2.034,2.293-2.888c2.125-2.081,4.684-2.527,7.483-1.616c0.492,0.16,0.977,0.419,1.391,0.73
		c1.723,1.296,1.766,3.199-0.041,4.347c-1.973,1.253-4.054,2.352-6.153,3.386c-1.201,0.591-2.513,0.981-3.806,1.351
		c-2.18,0.621-3.913-0.218-5.302-1.87c-0.287-0.341-0.579-0.835-0.563-1.247c0.05-1.349-0.598-2.489-0.899-3.73
		c-0.548-2.251-0.82-4.559,0.911-6.497c0.692-0.775,1.511-1.752,2.68-1.234c1.104,0.489,1.809,1.548,1.863,2.798
		c0.032,0.729-0.181,1.503-0.435,2.201c-0.56,1.542-1.198,3.055-1.835,4.567C203.555,139.469,203.746,140.043,204.828,140.425z"/>
	<path display="inline" fill-rule="evenodd" clip-rule="evenodd" d="M55.453,132.905c-0.081-1.696,0.511-3.257,1.51-4.695
		c0.851-1.223,1.967-1.749,3.477-1.52c1.42,0.215,2.742,0.64,3.902,1.489c1.609,1.179,2.28,2.954,1.617,4.818
		c-0.926,2.607-2.652,4.693-4.811,6.378c-1.149,0.898-2.422,0.689-3.462-0.451C56.163,137.254,55.373,135.275,55.453,132.905z"/>
	<path display="inline" fill-rule="evenodd" clip-rule="evenodd" d="M283.72,89.458c-0.678-0.062-1.157-0.055-1.61-0.158
		c-2.213-0.5-3.348-2.317-2.842-4.692c0.271-1.26,0.664-2.472,0.555-3.802c-0.033-0.408,0.354-1.006,0.726-1.263
		c1.191-0.825,2.48-1.164,3.977-0.698c3.222,1.002,5.112,4.237,4.199,7.261c-0.467,1.548-1.413,2.547-2.964,2.95
		C285.028,89.247,284.273,89.353,283.72,89.458z"/>
	<path display="inline" fill-rule="evenodd" clip-rule="evenodd" d="M314.132,107.954c-1.798-0.634-4.13-1.267-6.278-2.286
		c-1.249-0.591-2.163-1.819-1.968-3.464c0.186-1.548,1.388-2.675,2.88-2.458c2.82,0.408,5.492,1.246,7.732,3.133
		c1.452,1.223,1.893,2.123,1.408,3.273C317.306,107.574,315.962,107.694,314.132,107.954z"/>
	<path display="inline" fill-rule="evenodd" clip-rule="evenodd" d="M279.651,126.203c-0.292,0.812-0.438,1.725-0.91,2.413
		c-0.759,1.105-1.698,2.097-2.632,3.069c-0.84,0.873-1.9,1.184-3.057,0.679c-1.087-0.474-1.715-1.477-1.563-2.541
		c0.27-1.895,0.616-3.849,1.378-5.582c0.793-1.806,3.803-2.238,5.434-1.081C279.341,123.896,279.455,125,279.651,126.203z"/>
</g>
</svg>
